<svg version="1.0" xmlns="http://www.w3.org/2000/svg"
 width="1668.000000pt" height="1668.000000pt" viewBox="0 0 1668.000000 1668.000000"
 preserveAspectRatio="xMidYMid meet">

<g transform="translate(0.000000,1668.000000) scale(0.100000,-0.100000)"
fill="#000000" stroke="none">
<path d="M7815 15244 c-11 -1 -108 -8 -215 -14 -370 -22 -693 -74 -1104 -176
-607 -152 -1300 -445 -1805 -764 -295 -186 -334 -213 -562 -396 -273 -219
-665 -564 -678 -597 -2 -5 -39 -45 -83 -89 -157 -159 -617 -721 -618 -755 0
-4 -38 -60 -85 -123 -188 -258 -285 -417 -401 -660 -35 -74 -76 -157 -90 -185
-167 -315 -257 -522 -360 -830 -343 -1027 -430 -2223 -243 -3335 43 -256 74
-393 143 -630 24 -85 59 -211 76 -280 216 -856 882 -2008 1646 -2845 282 -310
563 -572 819 -766 106 -81 548 -385 671 -462 679 -425 1361 -673 2109 -767
334 -42 560 -54 920 -47 518 9 908 68 1200 180 201 77 636 262 720 306 276
145 502 283 607 370 221 185 530 560 686 835 115 201 298 659 332 831 6 33 16
78 22 100 85 320 88 595 12 885 -106 402 -228 683 -430 987 -84 127 -122 172
-268 321 -94 95 -188 185 -211 200 -22 15 -95 71 -163 125 l-123 98 45 50 c61
68 101 132 186 294 92 177 170 357 203 465 32 105 82 351 98 485 19 145 16
454 -5 600 -87 615 -382 1198 -835 1654 -99 99 -269 248 -356 311 -33 24 -109
80 -170 125 -60 45 -164 111 -230 145 -66 35 -151 81 -190 103 -226 128 -526
264 -755 343 -69 23 -149 52 -179 63 -135 51 -292 171 -512 391 -187 187 -284
307 -372 460 -140 244 -315 674 -368 904 -17 72 -41 178 -54 236 -49 216 -70
450 -45 514 22 59 -30 23 -155 -106 -125 -129 -235 -280 -352 -483 -22 -38
-63 -108 -91 -155 -217 -369 -334 -710 -467 -1364 -126 -620 -165 -990 -166
-1565 -1 -351 6 -460 57 -896 58 -508 106 -746 217 -1078 189 -563 456 -1010
837 -1401 221 -226 382 -348 661 -497 362 -194 612 -288 934 -353 219 -44 320
-51 508 -37 271 21 457 63 677 153 91 37 94 40 86 71 -4 19 -19 29 -68 46 -76
27 -165 85 -318 207 -139 111 -187 161 -406 425 -184 223 -165 207 -241 214
-322 30 -503 55 -503 70 0 2 15 1 33 -1 17 -3 79 -1 137 5 278 28 314 32 318
36 2 2 -24 44 -60 92 -107 148 -320 477 -425 658 -68 117 -188 330 -230 410
-12 22 -28 43 -35 47 -7 3 -83 40 -168 81 -85 41 -164 82 -175 90 -35 27 -9
30 60 7 92 -31 197 -52 208 -41 5 5 -15 56 -46 117 -71 142 -202 428 -262 574
-26 63 -63 149 -81 190 -40 90 -86 211 -82 216 2 1 57 -99 122 -224 65 -125
151 -276 191 -337 40 -60 88 -139 108 -175 83 -154 190 -324 304 -480 247
-341 225 -315 238 -289 7 13 20 58 29 99 9 41 21 89 26 105 5 17 17 80 27 140
l18 110 7 -55 c4 -30 12 -158 18 -285 13 -312 15 -326 54 -372 18 -21 69 -84
115 -141 45 -56 95 -114 110 -130 14 -15 65 -72 113 -127 133 -154 464 -479
478 -470 17 10 8 95 -25 241 -24 105 -86 496 -80 502 1 1 13 -26 25 -60 13
-35 55 -137 93 -228 115 -277 166 -415 204 -556 35 -130 38 -137 79 -171 194
-163 508 -341 769 -438 188 -70 239 -102 403 -260 92 -89 169 -173 202 -222
29 -43 70 -103 91 -133 119 -175 235 -470 268 -680 28 -179 44 -371 36 -443
-25 -238 -74 -484 -127 -637 -37 -106 -182 -403 -238 -489 -23 -35 -52 -87
-64 -115 -13 -28 -42 -73 -66 -101 -24 -27 -69 -84 -100 -126 -85 -115 -315
-326 -486 -446 -126 -88 -500 -285 -679 -356 -216 -87 -413 -149 -575 -182
-93 -19 -181 -32 -197 -29 -29 6 -47 3 -298 -41 -138 -24 -172 -26 -431 -26
-435 1 -602 21 -1002 122 -130 33 -273 69 -317 80 -44 11 -118 31 -165 45 -47
15 -107 32 -135 39 -59 16 -317 119 -361 144 -17 10 -123 61 -236 113 -113 52
-243 118 -289 145 -235 141 -303 181 -360 213 -87 48 -344 220 -464 310 -555
416 -1045 935 -1418 1500 -53 80 -109 163 -125 185 -46 63 -195 329 -252 450
-219 462 -348 798 -450 1170 -12 44 -35 122 -51 173 -58 183 -124 575 -153
907 -33 372 -38 453 -33 496 3 24 7 188 10 364 6 346 13 410 93 880 64 376
180 861 254 1065 195 531 513 1174 720 1455 20 28 61 91 91 140 70 117 281
382 444 560 224 243 574 585 735 718 85 71 178 150 205 176 64 62 412 300 625
428 235 142 535 299 664 348 34 12 99 39 146 60 252 109 507 202 710 259 203
57 489 124 596 141 54 9 136 23 181 31 283 52 860 83 1198 64 227 -12 560 -50
677 -76 37 -9 72 -13 77 -10 20 13 451 -80 636 -137 44 -14 105 -31 135 -37
50 -12 130 -39 425 -145 55 -19 118 -45 140 -56 22 -12 89 -41 150 -66 60 -24
148 -66 195 -92 47 -26 138 -76 202 -109 244 -128 436 -253 763 -498 392 -294
804 -696 1050 -1023 212 -283 282 -381 347 -486 481 -776 795 -1648 893 -2475
19 -165 21 -795 3 -806 -7 -5 -80 -11 -163 -15 -176 -8 -237 -23 -360 -86
-204 -104 -311 -185 -413 -313 -171 -214 -246 -384 -303 -687 -31 -166 -31
-171 -26 -403 5 -221 28 -576 43 -658 4 -20 11 -43 17 -49 7 -10 78 -13 292
-13 214 0 285 -3 293 -12 6 -9 7 -112 1 -303 -13 -419 4 -572 74 -677 17 -25
37 -38 80 -52 l57 -18 55 26 c64 32 86 60 108 136 14 49 16 103 10 416 -3 198
-3 385 1 415 l7 55 318 2 c236 1 322 -2 334 -11 15 -11 15 -29 7 -167 -5 -85
-10 -285 -12 -445 l-3 -290 30 -53 c40 -73 86 -97 169 -88 71 7 99 24 125 74
47 93 52 131 61 492 5 190 9 372 10 404 l0 59 307 -4 308 -4 12 130 c7 72 19
191 28 265 8 74 20 240 27 368 13 268 8 335 -47 545 -36 140 -118 323 -194
436 -98 143 -273 298 -431 380 -122 63 -314 115 -469 127 -69 5 -94 11 -100
23 -5 9 -11 147 -14 306 -7 352 -32 579 -102 918 -120 580 -312 1123 -609
1715 -175 349 -367 645 -642 989 -207 259 -358 426 -554 612 -492 467 -719
645 -1120 881 -96 56 -213 126 -260 155 -216 133 -658 349 -983 481 -306 124
-758 247 -1077 294 -385 56 -476 69 -555 76 -44 4 -91 8 -105 9 -202 21 -315
27 -590 29 -179 1 -334 1 -345 0z"/>
</g>
</svg>